<svg width="89" height="89" viewBox="0 0 89 89" fill="none" xmlns="http://www.w3.org/2000/svg">
<rect width="89" height="89" rx="28.5" fill="#151515"/>
<g clip-path="url(#clip0_4221_168)">
<path d="M44.5064 37.0875C40.3895 37.0875 37.0687 40.3939 37.0687 44.4931C37.0687 48.5923 40.3895 51.8988 44.5064 51.8988C48.6234 51.8988 51.9442 48.5923 51.9442 44.4931C51.9442 40.3939 48.6234 37.0875 44.5064 37.0875ZM44.5064 49.3078C41.846 49.3078 39.671 47.1486 39.671 44.4931C39.671 41.8376 41.8395 39.6785 44.5064 39.6785C47.1734 39.6785 49.3419 41.8376 49.3419 44.4931C49.3419 47.1486 47.1669 49.3078 44.5064 49.3078ZM53.9832 36.7845C53.9832 37.7449 53.2064 38.5119 52.2484 38.5119C51.2839 38.5119 50.5136 37.7384 50.5136 36.7845C50.5136 35.8306 51.2904 35.0572 52.2484 35.0572C53.2064 35.0572 53.9832 35.8306 53.9832 36.7845ZM58.9093 38.5376C58.7993 36.2238 58.2685 34.1742 56.566 32.4855C54.8701 30.7968 52.8116 30.2683 50.4877 30.1523C48.0926 30.0169 40.9138 30.0169 38.5187 30.1523C36.2013 30.2619 34.1428 30.7904 32.4404 32.4791C30.7379 34.1677 30.2136 36.2173 30.0971 38.5312C29.9611 40.916 29.9611 48.0638 30.0971 50.4486C30.2071 52.7624 30.7379 54.8121 32.4404 56.5007C34.1428 58.1894 36.1948 58.7179 38.5187 58.8339C40.9138 58.9693 48.0926 58.9693 50.4877 58.8339C52.8116 58.7244 54.8701 58.1958 56.566 56.5007C58.262 54.8121 58.7928 52.7624 58.9093 50.4486C59.0453 48.0638 59.0453 40.9224 58.9093 38.5376ZM55.8151 53.0074C55.3102 54.2707 54.3328 55.2439 53.0576 55.7531C51.148 56.5072 46.6167 56.3332 44.5064 56.3332C42.3962 56.3332 37.8585 56.5007 35.9553 55.7531C34.6866 55.2503 33.7091 54.2771 33.1977 53.0074C32.4404 51.106 32.6152 46.5943 32.6152 44.4931C32.6152 42.3919 32.4468 37.8738 33.1977 35.9789C33.7027 34.7156 34.6801 33.7423 35.9553 33.2332C37.8649 32.4791 42.3962 32.6531 44.5064 32.6531C46.6167 32.6531 51.1544 32.4855 53.0576 33.2332C54.3263 33.7359 55.3038 34.7091 55.8151 35.9789C56.5725 37.8802 56.3977 42.3919 56.3977 44.4931C56.3977 46.5943 56.5725 51.1125 55.8151 53.0074Z" fill="white"/>
</g>
<defs>
<clipPath id="clip0_4221_168">
<rect width="29" height="33" fill="white" transform="translate(30 28)"/>
</clipPath>
</defs>
</svg>
