<svg width="89" height="89" viewBox="0 0 89 89" fill="none" xmlns="http://www.w3.org/2000/svg">
<rect width="89" height="89" rx="28.5" fill="#151515"/>
<path d="M47.096 49.9408L50.6827 53.4033C51.4174 54.1111 51.4174 55.2606 50.6827 55.9691C49.9487 56.6776 48.759 56.6776 48.0258 55.9691L44.4994 52.5666L40.9761 55.9691C40.6087 56.323 40.1273 56.5001 39.6459 56.5001C39.1653 56.5001 38.6846 56.323 38.3173 55.9691C37.5833 55.2606 37.5833 54.1118 38.3165 53.4033L41.9035 49.9408C40.5976 49.6536 39.338 49.1541 38.1779 48.4515C37.3 47.9171 37.0362 46.7977 37.5894 45.9495C38.1411 45.1001 39.3012 44.8444 40.1806 45.3788C42.8072 46.9737 46.1908 46.9741 48.8189 45.3788C49.6984 44.8444 50.8581 45.1001 51.4109 45.9495C51.9641 46.7969 51.6996 47.9171 50.8216 48.4515C49.6615 49.1548 48.402 49.6536 47.096 49.9408Z" fill="white"/>
<path d="M44.4839 32.5C48.0228 32.5 50.8998 35.278 50.8999 38.6934C50.8999 42.1077 48.0229 44.8857 44.4839 44.8857C40.9456 44.8857 38.0679 42.1077 38.0679 38.6934C38.068 35.278 40.9457 32.5 44.4839 32.5ZM44.4839 36.1299C43.0202 36.1299 41.8278 37.2794 41.8276 38.6934C41.8276 40.1063 43.0201 41.2568 44.4839 41.2568C45.9488 41.2568 47.1401 40.1063 47.1401 38.6934C47.14 37.2794 45.9487 36.1299 44.4839 36.1299Z" fill="white"/>
</svg>
