<svg width="89" height="89" viewBox="0 0 89 89" fill="none" xmlns="http://www.w3.org/2000/svg">
<rect width="89" height="89" rx="28.5" fill="#151515"/>
<path d="M31.202 43.7085C34.0076 42.1631 37.1394 40.8733 40.0656 39.5769C45.0998 37.4535 50.154 35.3669 55.2592 33.4243C56.2525 33.0933 58.0372 32.7697 58.2122 34.2416C58.1164 36.3252 57.7222 38.3966 57.4518 40.468C56.7656 45.0232 55.9723 49.5628 55.1988 54.103C54.9323 55.6154 53.0378 56.3982 51.8256 55.4304C48.9124 53.4627 45.9768 51.514 43.1008 49.5006C42.1587 48.5433 43.0323 47.1686 43.8737 46.485C46.2731 44.1204 48.8177 42.1114 51.0917 39.6246C51.7051 38.1434 49.8927 39.3917 49.2949 39.7742C46.0101 42.0378 42.8057 44.4396 39.3425 46.429C37.5735 47.4028 35.5117 46.5707 33.7435 46.0273C32.1581 45.3709 29.8349 44.7095 31.2019 43.7087L31.202 43.7085Z" fill="white"/>
</svg>
