<svg width="89" height="89" viewBox="0 0 89 89" fill="none" xmlns="http://www.w3.org/2000/svg">
<rect width="89" height="89" rx="28.5" fill="#151515"/>
<path d="M45.7554 51.6081C45.7554 51.6081 46.2174 51.5577 46.4541 51.3082C46.6707 51.0796 46.6632 50.6482 46.6632 50.6482C46.6632 50.6482 46.6344 48.6338 47.5872 48.3364C48.5263 48.0439 49.7321 50.2844 51.0117 51.146C51.9783 51.7974 52.7121 51.6548 52.7121 51.6548L56.1315 51.6081C56.1315 51.6081 57.9195 51.5 57.0719 50.1197C57.0017 50.0067 56.5773 49.0984 54.5301 47.2327C52.3853 45.2797 52.6733 45.5956 55.2551 42.2169C56.8277 40.1595 57.4563 38.9034 57.2597 38.3663C57.0731 37.8525 55.9162 37.989 55.9162 37.989L52.0672 38.0123C52.0672 38.0123 51.7818 37.9742 51.5702 38.0983C51.3636 38.22 51.2296 38.5039 51.2296 38.5039C51.2296 38.5039 50.6211 40.0956 49.8085 41.45C48.0943 44.3063 47.4094 44.4575 47.129 44.2805C46.4766 43.8663 46.6394 42.6188 46.6394 41.7327C46.6394 38.9636 47.0676 37.8095 45.8067 37.5109C45.3885 37.4113 45.0805 37.3462 44.01 37.3351C42.6364 37.3216 41.4745 37.34 40.8159 37.6559C40.3777 37.8661 40.0396 38.3356 40.2462 38.3626C40.5004 38.3958 41.0763 38.515 41.3818 38.923C41.7762 39.4503 41.7625 40.6327 41.7625 40.6327C41.7625 40.6327 41.9891 43.8921 41.2328 44.2965C40.7145 44.5742 40.0033 44.0076 38.4745 41.4156C37.6919 40.0882 37.1009 38.6207 37.1009 38.6207C37.1009 38.6207 36.987 38.3466 36.7829 38.1991C36.5362 38.0209 36.1919 37.9656 36.1919 37.9656L32.5345 37.989C32.5345 37.989 31.9849 38.0037 31.7833 38.2385C31.6042 38.4462 31.7695 38.8776 31.7695 38.8776C31.7695 38.8776 34.633 45.4542 37.876 48.769C40.8497 51.8072 44.2254 51.6081 44.2254 51.6081H45.7554Z" fill="white"/>
</svg>
