<svg width="89" height="89" viewBox="0 0 89 89" fill="none" xmlns="http://www.w3.org/2000/svg">
<rect width="89" height="89" rx="28.5" fill="#151515"/>
<path d="M44.5596 30.0996C48.3773 30.1013 51.9609 31.5876 54.6553 34.2852C57.3495 36.9825 58.8325 40.5678 58.8311 44.3809C58.8279 52.2476 52.428 58.6491 44.5596 58.6523H44.5537C42.1654 58.6515 39.8187 58.0519 37.7344 56.915L30.1689 58.8994L32.1934 51.5049C30.9445 49.3406 30.288 46.8853 30.2891 44.3701C30.2922 36.5017 36.6936 30.0998 44.5596 30.0996ZM44.5645 32.5098C38.0217 32.5099 32.7008 37.8312 32.6982 44.3711C32.6974 46.6122 33.3244 48.7952 34.5117 50.6836L34.7939 51.1318L33.5957 55.5088L38.085 54.3311L38.5176 54.5889C40.3388 55.6696 42.4272 56.2414 44.5557 56.2422H44.5596C51.0973 56.2422 56.4193 50.9203 56.4219 44.3799C56.423 41.2106 55.1896 38.2303 52.9502 35.9883C50.7107 33.7464 47.7325 32.5109 44.5645 32.5098ZM39.5078 37.7793C39.7452 37.7793 39.9829 37.7816 40.1904 37.792C40.4093 37.803 40.7037 37.709 40.9932 38.4043C41.2904 39.1184 42.0036 40.8733 42.0928 41.0518C42.1819 41.2302 42.2409 41.4387 42.1221 41.6768C42.0033 41.9144 41.9438 42.0634 41.7656 42.2715C41.5874 42.4796 41.3909 42.7367 41.2305 42.8965C41.0521 43.0742 40.8663 43.2673 41.0742 43.624C41.2822 43.981 41.9985 45.1482 43.0586 46.0938C44.4206 47.3086 45.5692 47.6858 45.9258 47.8643C46.2822 48.0428 46.4902 48.0123 46.6982 47.7744C46.9063 47.5363 47.5893 46.734 47.8271 46.377C48.0648 46.0201 48.3031 46.0793 48.6299 46.1982C48.9574 46.3177 50.7099 47.18 51.0664 47.3584C51.4228 47.5369 51.6608 47.6258 51.75 47.7744C51.8391 47.9231 51.839 48.6376 51.542 49.4707C51.2446 50.3036 49.8199 51.0637 49.1348 51.166C48.5205 51.2579 47.7428 51.2959 46.8887 51.0244C46.3708 50.8601 45.7069 50.6407 44.8564 50.2734C41.2793 48.7288 38.9429 45.1268 38.7646 44.8887C38.5857 44.6498 37.3086 42.9548 37.3086 41.2002C37.3087 39.4453 38.2298 38.5826 38.5566 38.2256C38.8835 37.8687 39.2701 37.7793 39.5078 37.7793Z" fill="#FDFDFD"/>
</svg>
