<svg width="89" height="89" viewBox="0 0 89 89" fill="none" xmlns="http://www.w3.org/2000/svg">
<rect width="89" height="89" rx="28.5" fill="#151515"/>
<path d="M56.765 38.173C56.4706 37.042 55.6031 36.1514 54.5016 35.8491C52.5053 35.2998 44.5 35.2998 44.5 35.2998C44.5 35.2998 36.4946 35.2998 34.4982 35.8491C33.3967 36.1514 32.5292 37.042 32.2348 38.173C31.7 40.2228 31.7 44.4998 31.7 44.4998C31.7 44.4998 31.7 48.7766 32.2348 50.8266C32.5292 51.9576 33.3967 52.8482 34.4982 53.1506C36.4946 53.6998 44.5 53.6998 44.5 53.6998C44.5 53.6998 52.5053 53.6998 54.5016 53.1506C55.6031 52.8482 56.4706 51.9576 56.765 50.8266C57.3 48.7766 57.3 44.4998 57.3 44.4998C57.3 44.4998 57.3 40.2228 56.765 38.173Z" fill="white"/>
<path d="M42.0994 48.8994V40.8994L48.4994 44.8996L42.0994 48.8994Z" fill="black"/>
</svg>
