<svg width="472" height="89" viewBox="0 0 472 89" fill="none" xmlns="http://www.w3.org/2000/svg">
<path d="M356.5 0C368.157 1.51261e-06 378.765 4.48357 386.699 11.8187C388.151 13.1616 390.022 14 392 14C393.978 14 395.849 13.1616 397.301 11.8187C405.235 4.48357 415.843 0 427.5 0C452.077 0 472 19.9233 472 44.5C472 69.0767 452.077 89 427.5 89C415.843 89 405.235 84.5164 397.301 77.1813C395.849 75.8384 393.978 75 392 75C390.022 75 388.151 75.8384 386.699 77.1813C378.765 84.5164 368.157 89 356.5 89H44.5C19.9233 89 0 69.0767 0 44.5C0 19.9233 19.9233 0 44.5 0H356.5Z" fill="black"/>
</svg>
