<svg width="472" height="89" viewBox="0 0 472 89" fill="none" xmlns="http://www.w3.org/2000/svg">
<path d="M356.5 0C368.157 1.51261e-06 378.765 4.48357 386.699 11.8187C388.151 13.1616 390.022 14 392 14C393.978 14 395.849 13.1616 397.301 11.8187C405.235 4.48357 415.843 0 427.5 0C452.077 0 472 19.9233 472 44.5C472 69.0767 452.077 89 427.5 89C415.843 89 405.235 84.5164 397.301 77.1813C395.849 75.8384 393.978 75 392 75C390.022 75 388.151 75.8384 386.699 77.1813C378.765 84.5164 368.157 89 356.5 89H44.5C19.9233 89 0 69.0767 0 44.5C0 19.9233 19.9233 0 44.5 0H356.5Z" fill="black"/>
<path d="M433.394 40.5V36C433.394 32.6863 430.755 30 427.5 30C424.245 30 421.606 32.6863 421.606 36V40.5M415.112 42.5279L414.228 52.1279C413.976 54.8575 413.851 56.2223 414.295 57.2764C414.686 58.2024 415.371 58.9681 416.24 59.4507C417.23 60 418.576 60 421.269 60H433.731C436.424 60 437.77 60 438.76 59.4507C439.629 58.9681 440.314 58.2024 440.705 57.2764C441.149 56.2223 441.024 54.8575 440.772 52.1279L439.888 42.5279C439.676 40.223 439.57 39.0706 439.061 38.1992C438.612 37.4319 437.95 36.8177 437.158 36.4348C436.258 36 435.121 36 432.847 36L422.153 36C419.879 36 418.742 36 417.842 36.4348C417.05 36.8177 416.388 37.4319 415.939 38.1992C415.43 39.0706 415.324 40.223 415.112 42.5279Z" stroke="white" stroke-linecap="round" stroke-linejoin="round"/>
</svg>
